<svg width="22" height="24" viewBox="0 0 22 24" fill="none" xmlns="http://www.w3.org/2000/svg">
<g clip-path="url(#clip0_16_2244)">
<path d="M11.0147 6.6094C10.2731 6.60755 9.53838 6.74516 8.85247 7.01436C8.16657 7.28355 7.54292 7.67907 7.01715 8.17833C5.95531 9.18663 5.35658 10.5563 5.35267 11.986C5.34877 13.4156 5.94 14.7883 6.99632 15.8018C8.05263 16.8154 9.4875 17.3869 10.9853 17.3906C12.483 17.3944 13.921 16.83 14.9828 15.8217C16.0447 14.8134 16.6434 13.4438 16.6473 12.0141C16.6512 10.5844 16.06 9.2118 15.0037 8.19822C13.9474 7.18465 12.5125 6.61313 11.0147 6.6094ZM10.9853 8.50315C11.4663 8.5013 11.9431 8.58992 12.3883 8.76395C12.8335 8.93798 13.2384 9.19401 13.58 9.51742C13.9215 9.84083 14.193 10.2253 14.3789 10.6488C14.5648 11.0724 14.6615 11.5267 14.6634 11.986C14.6653 12.4452 14.5725 12.9003 14.3902 13.3252C14.2079 13.7502 13.9396 14.1367 13.6008 14.4627C13.262 14.7888 12.8593 15.0479 12.4155 15.2253C11.9718 15.4028 11.4958 15.4951 11.0147 15.4969C10.5336 15.4987 10.0569 15.4101 9.61169 15.2361C9.16648 15.0621 8.76155 14.806 8.42 14.4826C8.07846 14.1592 7.80699 13.7748 7.6211 13.3512C7.43521 12.9277 7.33854 12.4733 7.3366 12.0141C7.33467 11.5549 7.42751 11.0998 7.60982 10.6748C7.79214 10.2499 8.06036 9.86333 8.39917 9.5373C8.73798 9.21128 9.14074 8.95216 9.58447 8.77472C10.0282 8.59727 10.5042 8.505 10.9853 8.50315ZM15.5719 6.38909C15.5719 6.05591 15.7105 5.73638 15.9573 5.50078C16.2042 5.26519 16.5389 5.13284 16.8879 5.13284C17.237 5.13284 17.5717 5.26519 17.8185 5.50078C18.0654 5.73638 18.204 6.05591 18.204 6.38909C18.204 6.72227 18.0654 7.0418 17.8185 7.27739C17.5717 7.51298 17.237 7.64534 16.8879 7.64534C16.5389 7.64534 16.2042 7.51298 15.9573 7.27739C15.7105 7.0418 15.5719 6.72227 15.5719 6.38909ZM21.9411 7.66409C21.8576 5.98127 21.4549 4.49065 20.1634 3.26252C18.8768 2.0344 17.3152 1.65002 15.5522 1.56565C13.7353 1.46721 8.28928 1.46721 6.47232 1.56565C4.71428 1.64534 3.15267 2.02971 1.86116 3.25784C0.569639 4.48596 0.171871 5.97659 0.0834778 7.6594C-0.0196472 9.39377 -0.0196472 14.5922 0.0834778 16.3266C0.16696 18.0094 0.569639 19.5 1.86116 20.7282C3.15267 21.9563 4.70937 22.3407 6.47232 22.425C8.28928 22.5235 13.7353 22.5235 15.5522 22.425C17.3152 22.3453 18.8768 21.961 20.1634 20.7282C21.45 19.5 21.8527 18.0094 21.9411 16.3266C22.0442 14.5922 22.0442 9.39846 21.9411 7.66409ZM19.5937 18.1875C19.2107 19.1063 18.4692 19.8141 17.5018 20.1844C16.0531 20.7328 12.6156 20.6063 11.0147 20.6063C9.41384 20.6063 5.97142 20.7282 4.52767 20.1844C3.56517 19.8188 2.82366 19.111 2.43571 18.1875C1.86116 16.8047 1.99375 13.5235 1.99375 11.9953C1.99375 10.4672 1.86607 7.18127 2.43571 5.80315C2.81875 4.8844 3.56026 4.17659 4.52767 3.80627C5.97634 3.25784 9.41384 3.3844 11.0147 3.3844C12.6156 3.3844 16.058 3.26252 17.5018 3.80627C18.4643 4.1719 19.2058 4.87971 19.5937 5.80315C20.1683 7.18596 20.0357 10.4672 20.0357 11.9953C20.0357 13.5235 20.1683 16.8094 19.5937 18.1875Z" fill="#FFFAE9"/>
</g>
<defs>
<clipPath id="clip0_16_2244">
<rect width="22" height="24" fill="white"/>
</clipPath>
</defs>
</svg>
