<svg viewBox="0 0 359 227" fill="none" xmlns="http://www.w3.org/2000/svg"><path d="M313.575 107.756h-4.758l-45.423 97.71h4.761l15.64-33.686h.048l20.758-44.727 20.761 44.727h.045l15.64 33.686H359l-45.425-97.71zM16.629 158.825h18.224c6.437 0 11.933-2.293 16.49-6.886 4.554-4.591 6.832-10.092 6.832-16.501 0-6.455-2.278-11.966-6.833-16.535-4.556-4.569-10.052-6.854-16.49-6.854H16.63v46.776zM.377 205.466v-97.712h46.376c5.076 0 9.7 1.25 13.87 3.75 4.17 2.501 7.502 5.842 9.996 10.023 2.493 4.184 3.74 8.821 3.74 13.911 0 5.091-1.247 9.728-3.74 13.91-2.494 4.183-5.825 7.523-9.995 10.023-4.17 2.501-8.795 3.75-13.871 3.75l30.734 42.345H57.36l-30.736-42.345H16.63v42.345H.377zm132.12-95.666a25.64 25.64 0 00-6.391.819c-4.262 1.182-8.058 3.204-11.39 6.067a41.255 41.255 0 00-8.398 9.888 52.56 52.56 0 00-6.018 14.489c-1.291 5.161-1.938 10.33-1.938 15.513 0 5.182.647 10.354 1.938 15.512a52.502 52.502 0 006.018 14.49 41.211 41.211 0 008.398 9.887c3.332 2.865 7.128 4.887 11.39 6.068 2.13.545 4.259.819 6.391.819 2.176 0 4.308-.274 6.393-.819 4.26-1.181 8.057-3.203 11.39-6.068a41.203 41.203 0 008.396-9.887 52.441 52.441 0 006.018-14.49c1.293-5.158 1.938-10.33 1.938-15.512 0-5.183-.645-10.352-1.938-15.513a52.498 52.498 0 00-6.018-14.489 41.246 41.246 0 00-8.396-9.888c-3.333-2.863-7.13-4.885-11.39-6.067a25.137 25.137 0 00-6.393-.819zm0-4.296c5.621 0 10.983.863 16.083 2.591 5.099 1.728 9.767 4.149 14.006 7.262a51.539 51.539 0 0111.051 11.046c3.128 4.251 5.553 8.932 7.276 14.047 1.721 5.114 2.582 10.49 2.582 16.126 0 5.638-.861 11.011-2.582 16.126-1.723 5.114-4.148 9.797-7.276 14.047a52.207 52.207 0 01-11.051 11.081c-4.239 3.136-8.907 5.557-14.006 7.261-5.1 1.704-10.462 2.556-16.083 2.556-5.62 0-10.981-.852-16.081-2.556-5.1-1.704-9.768-4.125-14.008-7.261a51.499 51.499 0 01-11.016-11.081c-3.104-4.25-5.52-8.933-7.24-14.047-1.724-5.115-2.585-10.488-2.585-16.126 0-5.636.86-11.012 2.584-16.126 1.722-5.115 4.137-9.796 7.241-14.047a50.846 50.846 0 0111.016-11.046c4.24-3.113 8.908-5.534 14.008-7.262 5.1-1.728 10.461-2.591 16.081-2.591zm127.769 15.887a50.507 50.507 0 00-7.547-4.977 45.713 45.713 0 00-10.948-4.159 52.324 52.324 0 00-11.289-1.229h-1.631c-2.312 0-4.614.274-6.903.819a24.021 24.021 0 00-6.494 2.592 17.551 17.551 0 00-4.249 3.408 12.147 12.147 0 00-2.686 4.773 14.404 14.404 0 00-.409 3.342c0 .546.079 1.363.239 2.456.159 1.091.646 2.385 1.463 3.886 1.177 2.091 2.674 4.001 4.487 5.727a37.392 37.392 0 005.712 4.5 164.795 164.795 0 0011.695 6.751c.544.319 1.066.615 1.564.887a314.263 314.263 0 018.569 4.738 91.013 91.013 0 018.158 5.285 44.951 44.951 0 015.985 5.215 29.997 29.997 0 014.692 6.377c1.811 3.228 2.72 6.66 2.72 10.297 0 .453-.024.931-.068 1.43a21.724 21.724 0 01-2.449 8.525 23.622 23.622 0 01-5.1 6.58 29.269 29.269 0 01-6.935 4.67 37.173 37.173 0 01-9.349 3.273 52.182 52.182 0 01-9.895 1.09h-1.564c-3.264 0-6.505-.227-9.723-.681a53.22 53.22 0 01-10.607-2.591 47.94 47.94 0 01-16.048-9.546l3.06-3.069a45.996 45.996 0 007.547 4.979 44.212 44.212 0 0010.948 4.158 54.46 54.46 0 0011.832 1.296h1.088a32.33 32.33 0 006.901-.887 23.935 23.935 0 006.494-2.591 16.962 16.962 0 004.215-3.408c1.226-1.365 2.13-2.955 2.722-4.773a10.61 10.61 0 00.476-3.069c0-.636-.093-1.523-.273-2.659-.181-1.137-.679-2.456-1.496-3.956a23.98 23.98 0 00-4.487-5.693 40.783 40.783 0 00-5.78-4.534 155.214 155.214 0 00-11.629-6.751 62.345 62.345 0 00-1.699-.955 236.674 236.674 0 01-8.467-4.67 93.443 93.443 0 01-8.126-5.285 44.852 44.852 0 01-5.983-5.216 29.848 29.848 0 01-4.692-6.376c-1.767-3.227-2.651-6.659-2.651-10.295v-1.433c.225-3 1.02-5.84 2.38-8.523a25.062 25.062 0 015.134-6.58 28.635 28.635 0 016.902-4.671 38.344 38.344 0 019.382-3.273 52.001 52.001 0 019.928-1.091h1.634c3.217 0 6.413.228 9.587.681a54.762 54.762 0 0110.675 2.592c5.939 2.137 11.288 5.318 16.048 9.546l-3.06 3.068zM3.21 16.267h2.855c1.107 0 2.083-.21 2.929-.63a6.209 6.209 0 002.126-1.71 7.615 7.615 0 001.299-2.484 9.813 9.813 0 00.437-2.935c0-1.427-.27-2.725-.811-3.899-.542-1.171-1.319-2.108-2.33-2.81C8.705 1.1 7.488.748 6.065.748H3.21v15.52zM15.687 8.52c0 1.561-.382 2.986-1.148 4.274a8.78 8.78 0 01-3.075 3.083c-1.285.768-2.708 1.152-4.272 1.152H.377V0h6.815c1.564 0 2.987.384 4.272 1.153a8.765 8.765 0 013.075 3.084c.766 1.287 1.148 2.714 1.148 4.282zm4.967.38h3.176c1.12 0 2.078-.398 2.873-1.199.793-.8 1.19-1.76 1.19-2.876a3.935 3.935 0 00-1.19-2.881C25.908 1.146 24.951.747 23.83.747h-3.176V8.9zm-2.833 8.129V0h8.082c.884 0 1.69.219 2.417.654A4.965 4.965 0 0130.062 2.4c.436.73.652 1.537.652 2.424s-.216 1.695-.652 2.424a4.965 4.965 0 01-1.742 1.747 4.618 4.618 0 01-2.417.654l5.357 7.379h-3.51l-5.354-7.38h-1.742v7.38h-2.833zM40.099 3.363l-3.27 7.046h6.541L40.1 3.363zm-3.626 7.795l-2.725 5.87h-.83L40.835 0h.83l7.916 17.028h-3.13l-2.724-5.87h-7.253zm16.805 5.87a1.28 1.28 0 01-.938-.392c-.26-.26-.39-.574-.39-.938 0-.366.13-.678.39-.94a1.28 1.28 0 01.938-.391c.363 0 .672.13.928.39.259.263.387.575.387.941 0 .364-.128.678-.387.938-.256.261-.565.392-.928.392zM0 223.839c0-1.819 1.295-3.301 3.46-3.301.924 0 1.814.292 2.367.74v.945H5.82c-.652-.503-1.427-.855-2.368-.855-1.568 0-2.509 1.023-2.509 2.453 0 1.368.88 2.349 2.412 2.349 1.33 0 2.209-.724 2.253-1.943H3.064v-.777h3.46c.008.107.008.221.008.406-.009 2.154-1.47 3.144-3.22 3.144C1.241 227 0 225.658 0 223.839zm13.213-3.178h.914v6.179h-.914v-6.179zm8.106 0h1.1l3.601 4.82h.079v-4.82h.899v6.179H25.95l-3.662-4.909h-.07v4.909h-.9v-6.179zm12.834 0h4.99l.035.83H35.06v1.739h3.39v.83h-3.39v1.95h4.268l-.044.83h-5.13v-6.179zm11.362 3.107c0-1.756 1.232-3.23 3.415-3.23 1.004 0 1.797.37 2.308.76v.944h-.01c-.642-.452-1.338-.874-2.314-.874-1.524 0-2.456 1.023-2.456 2.4 0 1.368.872 2.365 2.438 2.365.96 0 1.699-.369 2.333-.856h.009v.954c-.493.371-1.339.732-2.405.732-2.234 0-3.318-1.421-3.318-3.195zm17.835-.017c0-1.484-.899-2.411-2.411-2.411-1.508 0-2.43.927-2.43 2.411 0 1.482.906 2.41 2.419 2.41 1.507 0 2.422-.928 2.422-2.41zm-5.785 0c0-1.952 1.313-3.248 3.363-3.248 2.06 0 3.364 1.27 3.364 3.248 0 1.951-1.304 3.249-3.364 3.249-2.059 0-3.363-1.273-3.363-3.249zm13.484-3.09h.916v5.333h3.795l-.035.846H71.05v-6.179zm16.322 3.09c0-1.484-.898-2.411-2.412-2.411-1.506 0-2.43.927-2.43 2.411 0 1.482.906 2.41 2.42 2.41 1.506 0 2.422-.928 2.422-2.41zm-5.784 0c0-1.952 1.311-3.248 3.362-3.248 2.06 0 3.363 1.27 3.363 3.248 0 1.951-1.302 3.249-3.362 3.249s-3.363-1.273-3.363-3.249zm13.07.088c0-1.819 1.294-3.301 3.46-3.301.925 0 1.813.292 2.368.74v.945h-.009c-.652-.503-1.427-.855-2.368-.855-1.568 0-2.51 1.023-2.51 2.453 0 1.368.882 2.349 2.413 2.349 1.33 0 2.21-.724 2.254-1.943h-2.543v-.777h3.459c.007.107.007.221.007.406-.007 2.154-1.469 3.144-3.221 3.144-2.07 0-3.31-1.342-3.31-3.161zm13.212-3.178h.916v6.179h-.916v-6.179zm9.428 3.698h2.657l-1.126-2.833h-.396l-1.135 2.833zm.546-3.698h1.593l2.474 6.179h-.96l-.67-1.667h-3.309l-.67 1.667h-.942l2.484-6.179zm19.716 5.535c.641 0 1.258-.309 2.146-1.032l-1.39-1.563-.175.106c-1.11.661-1.594 1.067-1.594 1.659 0 .521.414.83 1.013.83zm-1.919-.759c0-.883.677-1.519 1.945-2.26l.229-.133-1.33-1.5v-.883h4.463l.037.767h-3.452l2.791 3.179 1.699-1.581h.009v1.025l-1.241 1.122 1.468 1.667h-1.091l-.985-1.103c-.923.76-1.7 1.245-2.72 1.245-1.066 0-1.822-.54-1.822-1.545zm23.835-1.465c.978 0 1.348-.548 1.348-1.245 0-.698-.37-1.236-1.348-1.236h-2.218v2.481h2.218zm-3.133-3.311h3.151c1.515 0 2.262.742 2.262 2.031 0 1.013-.502 1.704-1.496 1.932l1.707 2.216h-1.09l-1.533-2.057h-2.086v2.057h-.915v-6.179zm12.198 0h4.993l.034.83h-4.12v1.739h3.39v.83h-3.39v1.95h4.27l-.043.83h-5.134v-6.179zm14.842 3.478c.985 0 1.443-.513 1.443-1.324 0-.856-.476-1.324-1.462-1.324h-2.016v2.648h2.035zm-2.951-3.478h3.011c1.524 0 2.317.786 2.317 2.119 0 1.465-.925 2.189-2.396 2.189h-2.016v1.871h-.916v-6.179zm15.061 3.311c.978 0 1.348-.548 1.348-1.245 0-.698-.37-1.236-1.348-1.236h-2.217v2.481h2.217zm-3.133-3.311h3.152c1.514 0 2.261.742 2.261 2.031 0 1.013-.501 1.704-1.496 1.932l1.709 2.216h-1.092l-1.532-2.057h-2.086v2.057h-.916v-6.179zm17.588 3.09c0-1.484-.899-2.411-2.412-2.411-1.507 0-2.43.927-2.43 2.411 0 1.482.907 2.41 2.419 2.41 1.508 0 2.423-.928 2.423-2.41zm-5.785 0c0-1.952 1.313-3.248 3.362-3.248 2.061 0 3.365 1.27 3.365 3.248 0 1.951-1.304 3.249-3.365 3.249-2.058 0-3.362-1.273-3.362-3.249zm16.328 2.259c1.39 0 2.165-.767 2.165-2.251 0-1.482-.775-2.268-2.165-2.268h-1.928v4.519h1.928zm-2.844-5.349h2.854c1.972 0 3.098 1.157 3.098 3.081 0 1.916-1.126 3.098-3.098 3.098h-2.854v-6.179zm12.64 3.823v-3.823h.916v3.77c0 1.261.853 1.711 1.938 1.711 1.082 0 1.926-.431 1.926-1.685v-3.796h.916v3.796c0 1.836-1.196 2.534-2.851 2.534-1.656 0-2.845-.707-2.845-2.507zm12.368-.716c0-1.756 1.232-3.23 3.415-3.23a3.81 3.81 0 012.308.76v.944h-.01c-.642-.452-1.338-.874-2.316-.874-1.522 0-2.456 1.023-2.456 2.4 0 1.368.872 2.365 2.439 2.365.96 0 1.7-.369 2.333-.856h.01v.954c-.495.371-1.339.732-2.405.732-2.236 0-3.318-1.421-3.318-3.195zm13.828.591h2.657l-1.126-2.833h-.395l-1.136 2.833zm.546-3.698h1.593l2.474 6.179h-.959l-.671-1.667h-3.309l-.67 1.667h-.941l2.483-6.179zm15.817 3.09c0-1.484-.897-2.411-2.411-2.411-1.506 0-2.431.927-2.431 2.411 0 1.482.907 2.41 2.421 2.41 1.506 0 2.421-.928 2.421-2.41zm-5.783 0c0-1.952 1.311-3.248 3.362-3.248 2.061 0 3.363 1.27 3.363 3.248 0 1.951-1.302 3.249-3.363 3.249-2.06 0-3.362-1.273-3.362-3.249zm21.088-3.09h.916v2.56h3.813v-2.56h.923v6.179h-.923v-2.773h-3.813v2.773h-.916v-6.179zm12.728 3.823v-3.823h.916v3.77c0 1.261.855 1.711 1.937 1.711 1.083 0 1.929-.431 1.929-1.685v-3.796h.915v3.796c0 1.836-1.197 2.534-2.853 2.534-1.655 0-2.844-.707-2.844-2.507zm12.781-3.823h1.145l2.322 4.097 2.298-4.097h1.163v6.179h-.915v-4.767h-.079l-2.44 4.282h-.088l-2.428-4.282h-.08v4.767h-.898v-6.179zm15.413 3.698h2.657l-1.126-2.833h-.396l-1.135 2.833zm.546-3.698h1.593l2.474 6.179h-.96l-.67-1.667h-3.309l-.67 1.667h-.942l2.484-6.179zm10.614 0h1.101l3.6 4.82h.079v-4.82h.899v6.179h-1.047l-3.663-4.909h-.071v4.909h-.898v-6.179zm14.153 3.698h2.659l-1.126-2.833h-.396l-1.137 2.833zm.546-3.698h1.595L359 226.84h-.961l-.669-1.667h-3.309l-.67 1.667h-.942l2.482-6.179zM3.839 35.346h8.794v52.875H3.839V35.346zm53.28 7.38a27.16 27.16 0 00-4.086-2.693 24.726 24.726 0 00-5.923-2.252 28.344 28.344 0 00-6.108-.663h-.884c-1.251 0-2.496.147-3.734.443a13.02 13.02 0 00-3.515 1.401 9.472 9.472 0 00-2.298 1.846 6.54 6.54 0 00-1.454 2.582 7.793 7.793 0 00-.222 1.809c0 .295.044.738.128 1.328.088.59.35 1.29.793 2.102a13.212 13.212 0 002.429 3.1c.98.935 2.01 1.747 3.09 2.435a89.926 89.926 0 006.328 3.653c.295.173.577.332.847.48 1.569.837 3.115 1.693 4.637 2.565a48.981 48.981 0 014.415 2.86 24.37 24.37 0 013.238 2.822 16.123 16.123 0 012.538 3.449c.982 1.748 1.472 3.605 1.472 5.571 0 .247-.012.506-.036.775a11.757 11.757 0 01-1.326 4.614 12.744 12.744 0 01-2.76 3.56 15.853 15.853 0 01-3.752 2.527 20.125 20.125 0 01-5.06 1.77c-1.779.37-3.562.566-5.353.592h-.847c-1.765 0-3.52-.123-5.261-.369a28.79 28.79 0 01-5.74-1.403 25.936 25.936 0 01-8.684-5.166l1.656-1.66a24.876 24.876 0 004.086 2.694 23.93 23.93 0 005.922 2.251c2.11.467 4.243.7 6.402.7h.59a17.492 17.492 0 003.734-.48 13.022 13.022 0 003.515-1.4 9.178 9.178 0 002.28-1.846 7.072 7.072 0 001.472-2.582 5.69 5.69 0 00.258-1.66c0-.346-.049-.825-.148-1.44-.097-.615-.368-1.328-.81-2.14a12.898 12.898 0 00-2.428-3.081 22.173 22.173 0 00-3.126-2.454 84.1 84.1 0 00-6.292-3.652 30.15 30.15 0 00-.92-.516 129.238 129.238 0 01-4.582-2.53 50.298 50.298 0 01-4.397-2.858 24.01 24.01 0 01-3.238-2.823 16.093 16.093 0 01-2.538-3.45 11.404 11.404 0 01-1.436-5.57v-.776c.123-1.623.551-3.16 1.288-4.613a13.633 13.633 0 012.778-3.56 15.545 15.545 0 013.734-2.528 20.773 20.773 0 015.078-1.77 28.152 28.152 0 015.372-.591h.884c1.742 0 3.47.125 5.188.369 1.962.272 3.887.738 5.777 1.403a26.431 26.431 0 018.684 5.166l-1.656 1.66zm72.558 43.134h8.867c3.436 0 6.465-.652 9.089-1.956 2.625-1.304 4.826-3.075 6.606-5.313 1.778-2.239 3.121-4.81 4.029-7.711.907-2.904 1.361-5.941 1.361-9.115 0-4.427-.841-8.46-2.52-12.102-1.681-3.64-4.091-6.55-7.23-8.727-3.141-2.176-6.919-3.265-11.335-3.265h-8.867V85.86zm38.746-24.058c0 4.846-1.19 9.267-3.569 13.265-2.379 3.998-5.562 7.19-9.549 9.575-3.987 2.386-8.408 3.58-13.265 3.58h-21.157V35.345h21.157c4.857 0 9.278 1.194 13.265 3.58 3.987 2.385 7.17 5.577 9.549 9.575 2.379 3.998 3.569 8.43 3.569 13.301zm33.446-25.349c-1.154 0-2.306.147-3.457.443a15.869 15.869 0 00-6.165 3.284 22.284 22.284 0 00-4.543 5.351 28.345 28.345 0 00-3.257 7.84 34.455 34.455 0 00-1.049 8.394c0 2.805.35 5.603 1.049 8.395a28.345 28.345 0 003.257 7.84 22.25 22.25 0 004.543 5.351 15.82 15.82 0 006.165 3.284 13.93 13.93 0 003.457.442c1.178 0 2.331-.149 3.46-.442a15.814 15.814 0 006.162-3.284A22.262 22.262 0 00216.037 78a28.495 28.495 0 003.256-7.84 34.539 34.539 0 001.047-8.395c0-2.804-.35-5.6-1.047-8.394a28.495 28.495 0 00-3.256-7.84 22.297 22.297 0 00-4.546-5.351 15.864 15.864 0 00-6.162-3.284 13.601 13.601 0 00-3.46-.443zm0-2.324c3.042 0 5.943.468 8.703 1.403a27.797 27.797 0 017.58 3.928 27.954 27.954 0 015.979 5.977 27.684 27.684 0 013.938 7.602c.93 2.767 1.397 5.676 1.397 8.726 0 3.05-.467 5.96-1.397 8.727a27.648 27.648 0 01-3.938 7.6 28.251 28.251 0 01-5.979 5.995 27.06 27.06 0 01-7.58 3.93c-2.76.924-5.661 1.385-8.703 1.385s-5.943-.46-8.702-1.385a27.054 27.054 0 01-7.579-3.93 27.871 27.871 0 01-9.88-13.595c-.932-2.767-1.397-5.676-1.397-8.727 0-3.05.465-5.959 1.397-8.727a27.908 27.908 0 013.919-7.6 27.534 27.534 0 015.961-5.978 27.79 27.79 0 017.579-3.928c2.759-.935 5.66-1.403 8.702-1.403zm43.015 28.854h9.86c3.483 0 6.458-1.241 8.923-3.726s3.699-5.462 3.699-8.93c0-3.492-1.234-6.474-3.699-8.948-2.465-2.472-5.44-3.708-8.923-3.708h-9.86v25.312zM236.09 88.22V35.346h25.093c2.747 0 5.251.678 7.507 2.03a15.464 15.464 0 015.408 5.424c1.35 2.263 2.026 4.773 2.026 7.526 0 2.757-.676 5.265-2.026 7.528a15.448 15.448 0 01-5.408 5.425c-2.256 1.353-4.76 2.029-7.507 2.029l16.633 22.913h-10.891l-16.633-22.913h-5.408V88.22h-8.794zm74.033-52.873h-2.579l-24.577 52.871h2.575l8.461-18.226h.029l11.234-24.203 11.232 24.203h.024l8.468 18.226h9.708l-24.575-52.871zm-221.463 0H86.08L61.506 88.219h2.573l8.463-18.226h.028L83.803 45.79l11.234 24.203h.023l8.467 18.226h9.71L88.66 35.348z" fill="#FFFAE9"/></svg>