<svg width="359" height="227" viewBox="0 0 359 227" fill="none" xmlns="http://www.w3.org/2000/svg">
<path d="M313.575 107.756H308.817L263.394 205.466H268.155L283.795 171.78H283.843L304.601 127.053L325.362 171.78H325.407L341.047 205.466H359L313.575 107.756ZM16.6288 158.825H34.8526C41.2899 158.825 46.7858 156.532 51.3422 151.939C55.8968 147.348 58.175 141.847 58.175 135.438C58.175 128.983 55.8968 123.472 51.3422 118.903C46.7858 114.334 41.2899 112.049 34.8526 112.049H16.6288V158.825ZM0.377261 205.466V107.754H46.7528C51.8294 107.754 56.4536 109.004 60.6236 111.504C64.7936 114.005 68.1248 117.346 70.6191 121.527C73.1116 125.711 74.3588 130.348 74.3588 135.438C74.3588 140.529 73.1116 145.166 70.6191 149.348C68.1248 153.531 64.7936 156.871 60.6236 159.371C56.4536 161.872 51.8294 163.121 46.7528 163.121L77.4867 205.466H57.3601L26.6243 163.121H16.6288V205.466H0.377261ZM132.497 109.8C130.365 109.8 128.236 110.073 126.106 110.619C121.844 111.801 118.048 113.823 114.716 116.686C111.385 119.551 108.585 122.848 106.318 126.574C103.598 131.075 101.593 135.905 100.3 141.063C99.0089 146.224 98.3624 151.393 98.3624 156.576C98.3624 161.758 99.0089 166.93 100.3 172.088C101.593 177.249 103.598 182.079 106.318 186.578C108.585 190.306 111.385 193.6 114.716 196.465C118.048 199.33 121.844 201.352 126.106 202.533C128.236 203.078 130.365 203.352 132.497 203.352C134.673 203.352 136.805 203.078 138.89 202.533C143.15 201.352 146.947 199.33 150.28 196.465C153.611 193.6 156.409 190.306 158.676 186.578C161.396 182.079 163.403 177.249 164.694 172.088C165.987 166.93 166.632 161.758 166.632 156.576C166.632 151.393 165.987 146.224 164.694 141.063C163.403 135.905 161.396 131.075 158.676 126.574C156.409 122.848 153.611 119.551 150.28 116.686C146.947 113.823 143.15 111.801 138.89 110.619C136.805 110.073 134.673 109.8 132.497 109.8ZM132.497 105.504C138.118 105.504 143.48 106.367 148.58 108.095C153.679 109.823 158.347 112.244 162.586 115.357C166.824 118.471 170.509 122.153 173.637 126.403C176.765 130.654 179.19 135.335 180.913 140.45C182.634 145.564 183.495 150.94 183.495 156.576C183.495 162.214 182.634 167.587 180.913 172.702C179.19 177.816 176.765 182.499 173.637 186.749C170.509 191 166.824 194.693 162.586 197.83C158.347 200.966 153.679 203.387 148.58 205.091C143.48 206.795 138.118 207.647 132.497 207.647C126.877 207.647 121.516 206.795 116.416 205.091C111.316 203.387 106.648 200.966 102.408 197.83C98.1683 194.693 94.4983 191 91.3923 186.749C88.2881 182.499 85.8726 177.816 84.1511 172.702C82.4278 167.587 81.567 162.214 81.567 156.576C81.567 150.94 82.4278 145.564 84.1511 140.45C85.8726 135.335 88.2881 130.654 91.3923 126.403C94.4983 122.153 98.1683 118.471 102.408 115.357C106.648 112.244 111.316 109.823 116.416 108.095C121.516 106.367 126.877 105.504 132.497 105.504ZM260.266 121.391C257.863 119.483 255.347 117.823 252.719 116.414C249.226 114.55 245.578 113.164 241.771 112.255C238.053 111.436 234.29 111.026 230.482 111.026H228.851C226.539 111.026 224.237 111.3 221.948 111.845C219.659 112.391 217.494 113.256 215.454 114.437C213.868 115.346 212.451 116.482 211.205 117.845C209.958 119.21 209.063 120.802 208.519 122.618C208.248 123.757 208.11 124.869 208.11 125.96C208.11 126.506 208.189 127.323 208.349 128.416C208.508 129.507 208.995 130.801 209.812 132.302C210.989 134.393 212.486 136.303 214.299 138.029C216.112 139.758 218.016 141.258 220.011 142.529C223.818 144.94 227.717 147.19 231.706 149.28C232.25 149.599 232.772 149.895 233.27 150.167C236.171 151.713 239.027 153.292 241.839 154.905C244.648 156.519 247.368 158.28 249.997 160.19C252.129 161.736 254.122 163.475 255.982 165.405C257.839 167.339 259.403 169.464 260.674 171.782C262.485 175.01 263.394 178.442 263.394 182.079C263.394 182.532 263.37 183.01 263.326 183.509C263.099 186.51 262.282 189.351 260.877 192.034C259.563 194.533 257.863 196.728 255.777 198.614C253.693 200.5 251.38 202.057 248.842 203.284C245.895 204.784 242.778 205.875 239.493 206.557C236.205 207.238 232.907 207.602 229.598 207.647H228.034C224.77 207.647 221.529 207.42 218.311 206.966C214.683 206.465 211.149 205.602 207.704 204.375C201.719 202.239 196.37 199.057 191.656 194.829L194.716 191.76C197.073 193.67 199.587 195.33 202.263 196.739C205.708 198.603 209.358 199.989 213.211 200.897C217.11 201.762 221.053 202.193 225.043 202.193H226.131C228.442 202.149 230.742 201.852 233.032 201.306C235.321 200.761 237.485 199.898 239.526 198.715C241.113 197.806 242.518 196.669 243.741 195.307C244.967 193.942 245.871 192.352 246.463 190.534C246.778 189.489 246.939 188.466 246.939 187.465C246.939 186.829 246.846 185.942 246.666 184.806C246.485 183.669 245.987 182.35 245.17 180.85C243.99 178.76 242.494 176.861 240.683 175.157C238.868 173.453 236.942 171.941 234.903 170.623C231.14 168.213 227.263 165.964 223.274 163.872C222.73 163.554 222.164 163.237 221.575 162.917C218.72 161.417 215.897 159.861 213.108 158.247C210.321 156.635 207.612 154.872 204.982 152.962C202.853 151.417 200.858 149.678 198.999 147.746C197.141 145.814 195.577 143.689 194.307 141.37C192.54 138.143 191.656 134.711 191.656 131.075V129.642C191.881 126.642 192.676 123.802 194.036 121.119C195.395 118.62 197.106 116.425 199.17 114.539C201.232 112.653 203.532 111.096 206.072 109.868C209.063 108.369 212.191 107.276 215.454 106.595C218.72 105.914 222.027 105.55 225.382 105.504H227.016C230.233 105.504 233.429 105.732 236.603 106.185C240.229 106.687 243.787 107.55 247.278 108.777C253.217 110.914 258.566 114.095 263.326 118.323L260.266 121.391ZM3.21038 16.2673H6.06547C7.17161 16.2673 8.14773 16.0579 8.99382 15.6374C9.83808 15.2187 10.5468 14.6475 11.12 13.9276C11.6932 13.2059 12.1254 12.3777 12.4185 11.4429C12.7097 10.5082 12.8562 9.52934 12.8562 8.50828C12.8562 7.08135 12.5851 5.78298 12.0449 4.60949C11.5028 3.43784 10.7263 2.50125 9.71537 1.79972C8.70446 1.0982 7.48844 0.747435 6.06547 0.747435H3.21038V16.2673ZM15.6874 8.51929C15.6874 10.0803 15.3047 11.5054 14.5392 12.7927C13.7718 14.0801 12.7481 15.1066 11.4643 15.8761C10.1787 16.6438 8.75574 17.0276 7.19176 17.0276H0.377261V0H7.19176C8.75574 0 10.1787 0.383818 11.4643 1.15329C12.7481 1.92093 13.7718 2.94934 14.5392 4.23669C15.3047 5.52404 15.6874 6.95097 15.6874 8.51929ZM20.6541 8.89944H23.8297C24.9505 8.89944 25.9083 8.50093 26.7031 7.70024C27.4961 6.89955 27.8935 5.94092 27.8935 4.82436C27.8935 3.70045 27.4961 2.73815 26.7031 1.94296C25.9083 1.14595 24.9505 0.747435 23.8297 0.747435H20.6541V8.89944ZM17.821 17.0276V0H25.9028C26.7873 0 27.5931 0.218538 28.3202 0.653776C29.0472 1.08902 29.6278 1.67117 30.0618 2.40024C30.4977 3.12931 30.7138 3.93735 30.7138 4.82436C30.7138 5.71136 30.4977 6.5194 30.0618 7.24847C29.6278 7.97754 29.0472 8.5597 28.3202 8.99494C27.5931 9.43017 26.7873 9.64871 25.9028 9.64871L31.2595 17.0276H27.7506L22.3957 9.64871H20.6541V17.0276H17.821ZM40.0995 3.36254L36.8287 10.409H43.3703L40.0995 3.36254ZM36.4734 11.1583L33.7483 17.0276H32.9187L40.8339 0H41.6635L49.5805 17.0276H46.4507L43.7256 11.1583H36.4734ZM53.278 17.0276C52.9135 17.0276 52.6022 16.8972 52.3403 16.6364C52.0803 16.3756 51.9502 16.0616 51.9502 15.698C51.9502 15.3325 52.0803 15.0203 52.3403 14.7577C52.6022 14.4969 52.9135 14.3666 53.278 14.3666C53.6406 14.3666 53.9501 14.4969 54.2065 14.7577C54.4647 15.0203 54.5929 15.3325 54.5929 15.698C54.5929 16.0616 54.4647 16.3756 54.2065 16.6364C53.9501 16.8972 53.6406 17.0276 53.278 17.0276ZM0 223.839C0 222.02 1.29477 220.538 3.45944 220.538C4.38428 220.538 5.27432 220.83 5.82739 221.278V222.223H5.82007C5.1681 221.72 4.39344 221.368 3.45212 221.368C1.88447 221.368 0.943151 222.391 0.943151 223.821C0.943151 225.189 1.8222 226.17 3.35505 226.17C4.68462 226.17 5.56368 225.446 5.60763 224.227H3.06387V223.45H6.52331C6.53247 223.557 6.53247 223.671 6.53247 223.856C6.52331 226.01 5.06188 227 3.3111 227C1.24166 227 0 225.658 0 223.839ZM13.2133 220.661H14.1271V226.84H13.2133V220.661ZM21.3189 220.661H22.4195L26.02 225.481H26.0987V220.661H26.9979V226.84H25.9504L22.2877 221.931H22.2181V226.84H21.3189V220.661ZM34.1531 220.661H39.1435L39.1783 221.491H35.0596V223.23H38.4494V224.06H35.0596V226.01H39.3285L39.2845 226.84H34.1531V220.661ZM45.5148 223.768C45.5148 222.012 46.7473 220.538 48.9303 220.538C49.9339 220.538 50.7269 220.908 51.2378 221.298V222.242H51.2287C50.5859 221.79 49.89 221.368 48.9138 221.368C47.3901 221.368 46.458 222.391 46.458 223.768C46.458 225.136 47.3297 226.133 48.8955 226.133C49.8552 226.133 50.595 225.764 51.2287 225.277H51.2378V226.231C50.7452 226.602 49.8991 226.963 48.8333 226.963C46.599 226.963 45.5148 225.542 45.5148 223.768ZM63.3505 223.751C63.3505 222.267 62.4513 221.34 60.9386 221.34C59.4314 221.34 58.5083 222.267 58.5083 223.751C58.5083 225.233 59.4149 226.161 60.9276 226.161C62.4348 226.161 63.3505 225.233 63.3505 223.751ZM57.5652 223.751C57.5652 221.799 58.8783 220.503 60.9276 220.503C62.9879 220.503 64.2918 221.773 64.2918 223.751C64.2918 225.702 62.9879 227 60.9276 227C58.8691 227 57.5652 225.727 57.5652 223.751ZM71.0495 220.661H71.9652V225.994H75.7598L75.725 226.84H71.0495V220.661ZM87.3706 223.751C87.3706 222.267 86.4732 221.34 84.9587 221.34C83.4533 221.34 82.5285 222.267 82.5285 223.751C82.5285 225.233 83.435 226.161 84.9495 226.161C86.4549 226.161 87.3706 225.233 87.3706 223.751ZM81.5872 223.751C81.5872 221.799 82.8984 220.503 84.9495 220.503C87.0098 220.503 88.3119 221.773 88.3119 223.751C88.3119 225.702 87.0098 227 84.9495 227C82.8893 227 81.5872 225.727 81.5872 223.751ZM94.6576 223.839C94.6576 222.02 95.9505 220.538 98.117 220.538C99.0419 220.538 99.9301 220.83 100.485 221.278V222.223H100.476C99.8239 221.72 99.0492 221.368 98.1079 221.368C96.5402 221.368 95.5989 222.391 95.5989 223.821C95.5989 225.189 96.4798 226.17 98.0108 226.17C99.3404 226.17 100.221 225.446 100.265 224.227H97.7215V223.45H101.181C101.188 223.557 101.188 223.671 101.188 223.856C101.181 226.01 99.7195 227 97.9669 227C95.8974 227 94.6576 225.658 94.6576 223.839ZM107.869 220.661H108.785V226.84H107.869V220.661ZM117.297 224.359H119.954L118.828 221.526H118.432L117.297 224.359ZM117.843 220.661H119.436L121.91 226.84H120.95L120.28 225.173H116.971L116.301 226.84H115.359L117.843 220.661ZM137.559 226.196C138.2 226.196 138.817 225.887 139.705 225.164L138.315 223.601L138.14 223.707C137.03 224.368 136.546 224.774 136.546 225.366C136.546 225.887 136.96 226.196 137.559 226.196ZM135.64 225.437C135.64 224.554 136.317 223.918 137.585 223.177L137.814 223.044L136.484 221.544V220.661H140.947L140.984 221.428H137.532L140.323 224.607L142.022 223.026H142.031V224.051L140.79 225.173L142.258 226.84H141.167L140.182 225.737C139.259 226.497 138.482 226.982 137.462 226.982C136.396 226.982 135.64 226.442 135.64 225.437ZM159.475 223.972C160.453 223.972 160.823 223.424 160.823 222.727C160.823 222.029 160.453 221.491 159.475 221.491H157.257V223.972H159.475ZM156.342 220.661H159.493C161.008 220.661 161.755 221.403 161.755 222.692C161.755 223.705 161.253 224.396 160.259 224.624L161.966 226.84H160.876L159.343 224.783H157.257V226.84H156.342V220.661ZM168.54 220.661H173.533L173.567 221.491H169.447V223.23H172.837V224.06H169.447V226.01H173.717L173.674 226.84H168.54V220.661ZM183.382 224.139C184.367 224.139 184.825 223.626 184.825 222.815C184.825 221.959 184.349 221.491 183.363 221.491H181.347V224.139H183.382ZM180.431 220.661H183.442C184.966 220.661 185.759 221.447 185.759 222.78C185.759 224.245 184.834 224.969 183.363 224.969H181.347V226.84H180.431V220.661ZM195.492 223.972C196.47 223.972 196.84 223.424 196.84 222.727C196.84 222.029 196.47 221.491 195.492 221.491H193.275V223.972H195.492ZM192.359 220.661H195.511C197.025 220.661 197.772 221.403 197.772 222.692C197.772 223.705 197.271 224.396 196.276 224.624L197.985 226.84H196.893L195.361 224.783H193.275V226.84H192.359V220.661ZM209.947 223.751C209.947 222.267 209.048 221.34 207.535 221.34C206.028 221.34 205.105 222.267 205.105 223.751C205.105 225.233 206.012 226.161 207.524 226.161C209.032 226.161 209.947 225.233 209.947 223.751ZM204.162 223.751C204.162 221.799 205.475 220.503 207.524 220.503C209.585 220.503 210.889 221.773 210.889 223.751C210.889 225.702 209.585 227 207.524 227C205.466 227 204.162 225.727 204.162 223.751ZM220.49 226.01C221.88 226.01 222.655 225.243 222.655 223.759C222.655 222.277 221.88 221.491 220.49 221.491H218.562V226.01H220.49ZM217.646 220.661H220.5C222.472 220.661 223.598 221.818 223.598 223.742C223.598 225.658 222.472 226.84 220.5 226.84H217.646V220.661ZM230.286 224.484V220.661H231.202V224.431C231.202 225.692 232.055 226.142 233.14 226.142C234.222 226.142 235.066 225.711 235.066 224.457V220.661H235.982V224.457C235.982 226.293 234.786 226.991 233.131 226.991C231.475 226.991 230.286 226.284 230.286 224.484ZM242.654 223.768C242.654 222.012 243.886 220.538 246.069 220.538C247.073 220.538 247.866 220.908 248.377 221.298V222.242H248.367C247.725 221.79 247.029 221.368 246.051 221.368C244.529 221.368 243.595 222.391 243.595 223.768C243.595 225.136 244.467 226.133 246.034 226.133C246.994 226.133 247.734 225.764 248.367 225.277H248.377V226.231C247.882 226.602 247.038 226.963 245.972 226.963C243.736 226.963 242.654 225.542 242.654 223.768ZM256.482 224.359H259.139L258.013 221.526H257.618L256.482 224.359ZM257.028 220.661H258.621L261.095 226.84H260.136L259.465 225.173H256.156L255.486 226.84H254.545L257.028 220.661ZM272.845 223.751C272.845 222.267 271.948 221.34 270.434 221.34C268.928 221.34 268.003 222.267 268.003 223.751C268.003 225.233 268.91 226.161 270.424 226.161C271.93 226.161 272.845 225.233 272.845 223.751ZM267.062 223.751C267.062 221.799 268.373 220.503 270.424 220.503C272.485 220.503 273.787 221.773 273.787 223.751C273.787 225.702 272.485 227 270.424 227C268.364 227 267.062 225.727 267.062 223.751ZM288.15 220.661H289.066V223.221H292.879V220.661H293.802V226.84H292.879V224.067H289.066V226.84H288.15V220.661ZM300.878 224.484V220.661H301.794V224.431C301.794 225.692 302.649 226.142 303.731 226.142C304.814 226.142 305.66 225.711 305.66 224.457V220.661H306.575V224.457C306.575 226.293 305.378 226.991 303.722 226.991C302.067 226.991 300.878 226.284 300.878 224.484ZM313.659 220.661H314.804L317.126 224.758L319.424 220.661H320.587V226.84H319.672V222.073H319.593L317.153 226.355H317.065L314.637 222.073H314.557V226.84H313.659V220.661ZM329.072 224.359H331.729L330.603 221.526H330.207L329.072 224.359ZM329.618 220.661H331.211L333.685 226.84H332.725L332.055 225.173H328.746L328.076 226.84H327.134L329.618 220.661ZM340.232 220.661H341.333L344.933 225.481H345.012V220.661H345.911V226.84H344.864L341.201 221.931H341.13V226.84H340.232V220.661ZM354.385 224.359H357.044L355.918 221.526H355.522L354.385 224.359ZM354.931 220.661H356.526L359 226.84H358.039L357.37 225.173H354.061L353.391 226.84H352.449L354.931 220.661ZM3.83853 35.3462H12.6327V88.2213H3.83853V35.3462ZM57.1183 42.7269C55.8181 41.6929 54.4555 40.7949 53.0326 40.0328C51.1444 39.0246 49.1702 38.2735 47.1099 37.7813C45.0973 37.3387 43.0626 37.1183 41.0024 37.1183H40.1178C38.867 37.1183 37.6217 37.2653 36.3837 37.5609C35.1457 37.8566 33.9736 38.3231 32.8693 38.9621C32.0104 39.4543 31.2449 40.0695 30.5709 40.8078C29.8951 41.546 29.4098 42.4073 29.1168 43.3898C28.9703 44.005 28.8952 44.6074 28.8952 45.1987C28.8952 45.4944 28.9392 45.937 29.0234 46.5265C29.1113 47.1178 29.3732 47.8175 29.8164 48.6292C30.4537 49.7623 31.2632 50.7944 32.2448 51.7291C33.2246 52.6639 34.2556 53.4756 35.3343 54.1643C37.3964 55.4682 39.5043 56.6857 41.6635 57.817C41.9583 57.9896 42.2404 58.1494 42.5096 58.2963C44.079 59.1337 45.6247 59.9895 47.1466 60.8618C48.6666 61.7341 50.139 62.6872 51.562 63.7212C52.7139 64.5568 53.7926 65.4989 54.7998 66.5438C55.8053 67.5887 56.6513 68.7383 57.3381 69.9926C58.3197 71.741 58.8105 73.5976 58.8105 75.5644C58.8105 75.8105 58.7977 76.0695 58.7739 76.3394C58.6512 77.9628 58.208 79.5018 57.448 80.9526C56.7374 82.3061 55.8181 83.4924 54.6881 84.5135C53.56 85.5345 52.3092 86.3756 50.9357 87.0404C49.3405 87.8521 47.6539 88.4416 45.8756 88.8108C44.0974 89.1799 42.3136 89.3764 40.5225 89.4021H39.6764C37.911 89.4021 36.1566 89.2791 34.4149 89.033C32.4517 88.7612 30.5398 88.2947 28.6755 87.6299C25.4376 86.4748 22.5422 84.7522 19.9911 82.464L21.6467 80.8038C22.9232 81.8378 24.2839 82.7358 25.7325 83.4979C27.595 84.5061 29.5692 85.2572 31.6551 85.7494C33.7648 86.2159 35.8983 86.4491 38.0575 86.4491H38.6472C39.898 86.4252 41.1415 86.2654 42.3814 85.9698C43.6194 85.6741 44.7914 85.2076 45.8958 84.5686C46.7528 84.0764 47.5147 83.4612 48.1758 82.7229C48.8388 81.9847 49.3296 81.1252 49.6482 80.1409C49.8204 79.5752 49.9064 79.0206 49.9064 78.4807C49.9064 78.1355 49.857 77.6562 49.7581 77.0409C49.661 76.4257 49.39 75.7132 48.9486 74.9015C48.3113 73.7702 47.5019 72.7418 46.5202 71.8199C45.5386 70.898 44.4966 70.0808 43.3941 69.3664C41.3576 68.0625 39.2589 66.845 37.1016 65.7137C36.8067 65.5411 36.499 65.3685 36.1822 65.1977C34.6365 64.3841 33.1092 63.543 31.6001 62.6689C30.0911 61.7966 28.626 60.8435 27.203 59.8095C26.0493 58.9739 24.9706 58.0337 23.9652 56.9869C22.9598 55.942 22.1137 54.7923 21.4269 53.5362C20.4691 51.7916 19.9911 49.9331 19.9911 47.9663V47.1913C20.1138 45.5679 20.5424 44.0307 21.2786 42.5781C22.0148 41.2265 22.9415 40.0383 24.0568 39.0172C25.1721 37.998 26.4174 37.1551 27.7909 36.4903C29.4098 35.6786 31.1038 35.0891 32.8693 34.7199C34.6365 34.3508 36.4258 34.1543 38.2407 34.1286H39.1252C40.8668 34.1286 42.5956 34.2535 44.3135 34.4977C46.2748 34.7695 48.1996 35.236 50.0896 35.9008C53.3036 37.0559 56.1972 38.7785 58.7739 41.0667L57.1183 42.7269ZM129.677 85.8596H138.544C141.98 85.8596 145.009 85.2076 147.633 83.9038C150.258 82.5999 152.459 80.8295 154.239 78.5909C156.017 76.3523 157.36 73.7812 158.268 70.8797C159.175 67.9762 159.629 64.9387 159.629 61.7654C159.629 57.3377 158.788 53.3048 157.109 49.6631C155.428 46.0233 153.018 43.1125 149.879 40.9363C146.738 38.7601 142.96 37.6711 138.544 37.6711H129.677V85.8596ZM168.423 61.8021C168.423 66.6485 167.233 71.0688 164.854 75.0668C162.475 79.0647 159.292 82.2565 155.305 84.642C151.318 87.0276 146.897 88.2213 142.04 88.2213H120.883V35.3462H142.04C146.897 35.3462 151.318 36.5399 155.305 38.9254C159.292 41.311 162.475 44.5027 164.854 48.5007C167.233 52.4986 168.423 56.9318 168.423 61.8021ZM201.869 36.4535C200.715 36.4535 199.563 36.6005 198.412 36.8961C196.104 37.5371 194.051 38.6316 192.247 40.1797C190.445 41.7297 188.929 43.5147 187.704 45.5311C186.231 47.9663 185.145 50.5795 184.447 53.3709C183.748 56.1642 183.398 58.9611 183.398 61.7654C183.398 64.5696 183.748 67.3684 184.447 70.1598C185.145 72.9512 186.231 75.5644 187.704 77.9996C188.929 80.0178 190.445 81.801 192.247 83.351C194.051 84.901 196.104 85.9955 198.412 86.6346C199.563 86.9284 200.715 87.0771 201.869 87.0771C203.047 87.0771 204.2 86.9284 205.329 86.6346C207.634 85.9955 209.689 84.901 211.491 83.351C213.295 81.801 214.81 80.0178 216.037 77.9996C217.507 75.5644 218.593 72.9512 219.293 70.1598C219.99 67.3684 220.34 64.5696 220.34 61.7654C220.34 58.9611 219.99 56.1642 219.293 53.3709C218.593 50.5795 217.507 47.9663 216.037 45.5311C214.81 43.5147 213.295 41.7297 211.491 40.1797C209.689 38.6316 207.634 37.5371 205.329 36.8961C204.2 36.6005 203.047 36.4535 201.869 36.4535ZM201.869 34.1286C204.911 34.1286 207.812 34.5969 210.572 35.5317C213.332 36.4664 215.857 37.7758 218.152 39.4598C220.445 41.1457 222.437 43.1382 224.131 45.4375C225.823 47.7385 227.136 50.2728 228.069 53.0385C228.999 55.8061 229.466 58.715 229.466 61.7654C229.466 64.8157 228.999 67.7246 228.069 70.4922C227.136 73.2579 225.823 75.7922 224.131 78.0914C222.437 80.3925 220.445 82.3905 218.152 84.0874C215.857 85.7861 213.332 87.0955 210.572 88.0174C207.812 88.9411 204.911 89.4021 201.869 89.4021C198.827 89.4021 195.926 88.9411 193.167 88.0174C190.409 87.0955 187.881 85.7861 185.588 84.0874C183.294 82.3905 181.307 80.3925 179.627 78.0914C177.946 75.7922 176.64 73.2579 175.708 70.4922C174.776 67.7246 174.311 64.8157 174.311 61.7654C174.311 58.715 174.776 55.8061 175.708 53.0385C176.64 50.2728 177.946 47.7385 179.627 45.4375C181.307 43.1382 183.294 41.1457 185.588 39.4598C187.881 37.7758 190.409 36.4664 193.167 35.5317C195.926 34.5969 198.827 34.1286 201.869 34.1286ZM244.884 62.9829H254.744C258.227 62.9829 261.202 61.7415 263.667 59.2568C266.132 56.772 267.366 53.7952 267.366 50.3261C267.366 46.835 266.132 43.8526 263.667 41.3789C261.202 38.907 258.227 37.6711 254.744 37.6711H244.884V62.9829ZM236.09 88.2213V35.3462H261.183C263.93 35.3462 266.434 36.0238 268.69 37.3754C270.946 38.7289 272.75 40.5378 274.098 42.8003C275.448 45.0628 276.124 47.5733 276.124 50.3261C276.124 53.0826 275.448 55.5912 274.098 57.8537C272.75 60.1181 270.946 61.9251 268.69 63.2786C266.434 64.632 263.93 65.3079 261.183 65.3079L277.816 88.2213H266.925L250.292 65.3079H244.884V88.2213H236.09ZM310.123 35.348H307.544L282.967 88.2194H285.542L294.003 69.9926H294.032L305.266 45.7901L316.498 69.9926H316.522L324.99 88.2194H334.698L310.123 35.348ZM88.6599 35.348H86.0813L61.5063 88.2194H64.0793L72.5421 69.9926H72.5695L83.8031 45.7901L95.0367 69.9926H95.0605L103.527 88.2194H113.237L88.6599 35.348Z" fill="#FFFAE9"/>
</svg>
