<svg width="35" height="55" viewBox="0 0 35 55" fill="none" xmlns="http://www.w3.org/2000/svg">
<path d="M16.2059 14.4388V17.1429C16.2059 17.5197 16.5114 17.8252 16.8882 17.8252H17.2248C17.6258 17.8252 18.0102 17.8563 18.3885 17.8563V14.4388C18.3885 12.4723 19.0071 11.7453 20.0616 11.4731V11.3222H14.5328V11.4731C15.5888 11.7453 16.2059 12.4723 16.2059 14.4388ZM18.3885 37.9619V31.0078C18.3885 30.5477 18.0163 30.1747 17.5561 30.1732H17.547C17.2468 30.1732 16.4584 30.5901 16.2059 30.7509V37.9619C16.2059 39.9292 15.5888 40.6554 14.5328 40.9276V41.08H20.0616V40.9276C19.0071 40.6554 18.3885 39.9292 18.3885 37.9619ZM16.2059 30.7509C16.0331 30.8615 16.3644 30.6387 16.2059 30.7509V30.7509ZM16.2059 20.4028V29.058L17.2354 28.4637C17.9488 28.052 18.3885 27.2909 18.3885 26.4668V19.0101C16.1301 19.0101 16.2059 18.8502 16.2059 20.4028Z" fill="#FFFAE9"/>
<path d="M17.9533 28.3985C17.3218 28.7533 16.6684 29.1202 16.0361 29.5349C15.2249 30.0633 14.1507 30.8517 13.3517 32.0176V20.421C13.3517 19.4559 14.1333 18.6751 15.0976 18.6751H16.8973C17.3977 18.6751 17.8836 18.7092 18.3445 18.7744C19.6439 18.9601 22.6627 19.7114 22.6627 22.693C22.6627 25.4654 20.7439 26.7921 18.2331 28.2393L18.2225 28.2453C18.2088 28.2552 18.1952 28.2612 18.1808 28.2696L17.9533 28.3985ZM24.8073 22.8386V22.8719C24.7793 25.1401 23.022 26.2462 20.8038 27.3167C22.2745 26.1848 23.2828 24.8157 23.2828 22.693C23.2828 20.9911 22.3738 19.6454 20.7659 18.8502C23.3927 19.4597 24.8073 20.8349 24.8073 22.8386ZM24.7558 34.8423L22.972 32.004C21.8083 30.1868 21.4073 29.24 19.6257 29.2036L18.1353 29.3173C17.9139 29.3355 17.8381 29.0262 18.0436 28.9405C18.1868 28.8791 18.3104 28.8276 18.3885 28.7896C18.9025 28.5463 19.4248 28.3113 19.9168 28.0755C22.6452 26.8042 25.0825 25.6761 25.1182 22.8765V22.8386C25.1182 20.2534 22.884 18.4734 18.3885 18.2141C18.0155 18.1944 17.6289 18.1823 17.2241 18.1823H9.18666V18.3658C10.2404 18.7289 10.8606 19.5279 10.8606 21.9296V33.8234C10.8606 36.1872 10.2404 37.0605 9.18666 37.3873V37.5707H14.7147V37.3873C14.0233 37.1742 13.5192 36.7232 13.2539 35.771C12.8816 34.4314 13.2182 33.0009 14.0734 31.9047C14.6609 31.1489 15.3985 30.5333 16.2059 30.0034C16.2613 29.967 16.3151 29.9313 16.3712 29.8957C16.732 29.666 17.1407 29.5546 17.547 29.5546C17.8343 29.5546 18.1209 29.6107 18.3885 29.7221C18.6432 29.826 18.8805 29.9791 19.0859 30.1823C19.6871 30.7744 21.6407 33.8477 22.7529 35.6414C23.1615 36.2986 22.9561 37.1621 22.298 37.5707H28.0285V37.3873C27.2651 37.244 25.9915 36.7694 24.7558 34.8423Z" fill="#FFFAE9"/>
<path d="M17.5 0.935497C8.3664 0.935497 2.95128 12.6648 2.95128 27.0824C2.95128 41.5007 8.3664 53.2301 17.5 53.2301C26.6336 53.2301 32.1783 41.5007 32.1783 27.0824C32.1783 12.6648 26.6336 0.935497 17.5 0.935497ZM17.5 54.1656C12.7854 54.1656 8.36868 51.3204 5.0626 46.1547C1.79821 41.0534 0 34.2798 0 27.0824C0 19.8857 1.79821 13.1121 5.0626 8.01085C8.36868 2.84515 12.7854 0 17.5 0C22.2146 0 26.6313 2.84515 29.9374 8.01085C33.2018 13.1121 35 19.8857 35 27.0824C35 34.2798 33.2018 41.0534 29.9374 46.1547C26.6313 51.3204 22.2146 54.1656 17.5 54.1656Z" fill="#FFFAE9"/>
</svg>
