<svg width="22" height="25" viewBox="0 0 22 25" fill="none" xmlns="http://www.w3.org/2000/svg">
<path d="M4.80621 21.2272C2.53071 16.591 1.17688 13.7912 1.17688 13.7217C1.17688 13.6083 1.31593 13.6241 2.6831 13.8906C5.08764 14.36 6.37234 14.4925 8.51384 14.4933C11.3472 14.4941 13.6544 14.0479 15.447 13.1513C16.3954 12.6769 16.9657 12.2564 17.4328 11.6868C18.0081 10.9847 18.1929 10.5012 18.1996 9.68742C18.2054 8.91338 18.1005 8.50521 17.6501 7.55809C17.4718 7.18385 17.3153 6.75425 17.3004 6.60352C17.277 6.36093 17.297 6.32613 17.4769 6.30549C17.8699 6.25918 19.8098 8.13177 20.5242 9.24693C21.7556 11.1701 21.8556 13.2505 20.8132 15.2623C20.1729 16.4983 19.4652 17.3535 18.2804 18.3255C16.3112 19.9398 14.0224 21.0641 10.8618 21.9698C9.16416 22.4566 6.41904 23.0469 5.85368 23.0469C5.73382 23.0469 5.50894 22.6561 4.8079 21.2264L4.80621 21.2272ZM5.43989 13.7506C3.22929 13.4658 1.37428 13.2182 1.31682 13.2C1.21862 13.1686 0.867264 12.003 0.669072 11.0542C0.619136 10.8141 0.545853 10.1783 0.505901 9.64022C0.327625 7.23932 0.853029 5.57942 2.26095 4.08678C4.64473 1.56178 9.74861 1.25459 15.5069 3.28952C16.5177 3.64715 16.919 3.89553 16.7334 4.0503C16.596 4.16455 15.6652 4.16289 14.0566 4.0453C11.5421 3.86152 9.62795 4.20923 8.64131 5.03047C7.13925 6.28054 7.36829 9.02088 9.30577 12.9739C9.51561 13.4019 9.72705 13.8208 9.77539 13.9061C9.88783 14.1023 9.80623 14.2845 9.61053 14.2753C9.52716 14.2714 7.65042 14.0354 5.43989 13.7506ZM12.8559 11.5998C11.0915 11.2844 9.50543 10.1966 8.99337 8.95231C8.74773 8.35458 8.75941 7.57472 9.02165 7.10784C9.25897 6.68561 9.87173 6.1972 10.4205 5.99268C11.3338 5.65245 12.9333 5.78816 14.0989 6.30566C15.2054 6.79662 16.1863 7.66006 16.5509 8.46311C17.0189 9.49379 16.6292 10.6438 15.6267 11.1926C14.9622 11.556 13.6709 11.7456 12.855 11.5999H12.8559L12.8559 11.5998Z" fill="#FFFAE9"/>
</svg>
