<svg width="22" height="22" viewBox="0 0 22 22" fill="#FFFAE9" xmlns="http://www.w3.org/2000/svg">
<path d="M18.7049 3.17871C16.6473 1.12793 13.9071 0 10.9951 0C4.98437 0 0.0933036 4.86328 0.0933036 10.8398C0.0933036 12.749 0.594196 14.6143 1.54688 16.2598L0 21.875L5.77991 20.3662C7.37098 21.2305 9.16339 21.6846 10.9902 21.6846H10.9951C17.0009 21.6846 22 16.8213 22 10.8447C22 7.94922 20.7625 5.22949 18.7049 3.17871ZM10.9951 19.8584C9.36473 19.8584 7.76875 19.4238 6.37902 18.6035L6.05 18.4082L2.62232 19.3018L3.53571 15.9766L3.31964 15.6348C2.41116 14.1992 1.93482 12.5439 1.93482 10.8398C1.93482 5.87402 6.00089 1.83105 11 1.83105C13.421 1.83105 15.6946 2.76855 17.4036 4.47266C19.1125 6.17676 20.1634 8.4375 20.1585 10.8447C20.1585 15.8154 15.9893 19.8584 10.9951 19.8584ZM15.9647 13.1104C15.6946 12.9736 14.354 12.3193 14.1036 12.2314C13.8531 12.1387 13.6714 12.0947 13.4897 12.3682C13.308 12.6416 12.7875 13.2471 12.6254 13.4326C12.4683 13.6133 12.3062 13.6377 12.0362 13.501C10.4353 12.7051 9.38438 12.0801 8.32857 10.2783C8.04866 9.7998 8.60848 9.83398 9.12902 8.79883C9.21741 8.61816 9.17321 8.46191 9.10446 8.3252C9.03571 8.18848 8.49063 6.85547 8.26473 6.31348C8.04375 5.78613 7.81786 5.85938 7.65089 5.84961C7.49375 5.83984 7.31205 5.83984 7.13036 5.83984C6.94866 5.83984 6.65402 5.9082 6.40357 6.17676C6.15312 6.4502 5.45089 7.10449 5.45089 8.4375C5.45089 9.77051 6.42813 11.0596 6.56071 11.2402C6.69821 11.4209 8.4808 14.1553 11.2161 15.332C12.9446 16.0742 13.6223 16.1377 14.4866 16.0107C15.0121 15.9326 16.0973 15.3564 16.3232 14.7217C16.5491 14.0869 16.5491 13.5449 16.4804 13.4326C16.4165 13.3105 16.2348 13.2422 15.9647 13.1104Z"/>
</svg>
